<svg xmlns="http://www.w3.org/2000/svg" xmlns:xlink="http://www.w3.org/1999/xlink" width="1212" height="1080" viewBox="0 0 1212 1080">
  <defs>
    <clipPath id="clip-path">
      <rect id="Rectangle_300" data-name="Rectangle 300" width="1212" height="1080" fill="#fff" stroke="#707070" stroke-width="1"/>
    </clipPath>
  </defs>
  <g id="Mask_Group_21" data-name="Mask Group 21" clip-path="url(#clip-path)">
    <g id="Group_135" data-name="Group 135" transform="translate(-264)">
      <g id="BACKGROUND" transform="translate(-147.573)">
        <g id="Group_137" data-name="Group 137">
          <rect id="Rectangle_257" data-name="Rectangle 257" width="1624" height="1080" transform="translate(-0.427)" fill="rgba(48,93,81,0.47)"/>
          <rect id="Rectangle_258" data-name="Rectangle 258" width="1599.125" height="191.231" transform="translate(0 888.769)" fill="#ffeed9"/>
          <g id="Group_135-2" data-name="Group 135" transform="translate(90.01 67.756)">
            <rect id="Rectangle_259" data-name="Rectangle 259" width="77.76" height="30.765" transform="translate(38.88 270.585)" fill="#ffe8cc"/>
            <rect id="Rectangle_260" data-name="Rectangle 260" width="77.76" height="30.765" transform="translate(167.055 422.861)" fill="#ffe8cc"/>
            <rect id="Rectangle_261" data-name="Rectangle 261" width="77.76" height="30.765" transform="translate(935.483)" fill="#ffe8cc"/>
            <rect id="Rectangle_262" data-name="Rectangle 262" width="77.76" height="30.765" transform="translate(820.669 672.583)" fill="#ffe8cc"/>
            <rect id="Rectangle_263" data-name="Rectangle 263" width="77.76" height="30.765" transform="translate(594.37 65.201)" fill="#ffe8cc"/>
            <rect id="Rectangle_264" data-name="Rectangle 264" width="77.76" height="30.765" transform="translate(907.649 331.571)" fill="#ffe8cc"/>
            <rect id="Rectangle_265" data-name="Rectangle 265" width="77.76" height="30.765" transform="translate(1326.821 237.206)" fill="#ffe8cc"/>
            <rect id="Rectangle_266" data-name="Rectangle 266" width="77.76" height="30.764" transform="translate(1391.749 387.039)" fill="#ffe8cc"/>
            <rect id="Rectangle_267" data-name="Rectangle 267" width="77.76" height="30.764" transform="translate(183.652 9.639)" fill="#ffe8cc"/>
            <rect id="Rectangle_268" data-name="Rectangle 268" width="77.76" height="30.765" transform="translate(0 638.231)" fill="#ffe8cc"/>
          </g>
          <g id="Group_136" data-name="Group 136" transform="translate(69.781 919.138)">
            <path id="Path_1829" data-name="Path 1829" d="M863.96,463.578c0,8.186-91.519,14.822-204.414,14.822s-204.412-6.636-204.412-14.822,91.519-14.822,204.412-14.822S863.96,455.392,863.96,463.578Z" transform="translate(437.3 -398.581)" fill="#f2ddc4"/>
            <path id="Path_1830" data-name="Path 1830" d="M823.331,442.349c0,8.184-39.886,14.82-89.089,14.82s-89.089-6.635-89.089-14.82,39.887-14.822,89.089-14.822S823.331,434.163,823.331,442.349Z" transform="translate(657.72 -423.207)" fill="#f2ddc4"/>
            <path id="Path_1831" data-name="Path 1831" d="M210.484,440.349c0,8.184-39.887,14.82-89.089,14.82s-89.089-6.635-89.089-14.82,39.887-14.822,89.089-14.822S210.484,432.163,210.484,440.349Z" transform="translate(-32.306 -425.527)" fill="#f2ddc4"/>
            <ellipse id="Ellipse_102" data-name="Ellipse 102" cx="204.412" cy="14.821" rx="204.412" ry="14.821" transform="translate(609.471 2.337)" fill="#f2ddc4"/>
            <ellipse id="Ellipse_103" data-name="Ellipse 103" cx="174.292" cy="14.821" rx="174.292" ry="14.821" transform="translate(231.589 6.558)" fill="#f2ddc4"/>
            <ellipse id="Ellipse_104" data-name="Ellipse 104" cx="174.292" cy="14.821" rx="174.292" ry="14.821" transform="translate(57.703 58.617)" fill="#f2ddc4"/>
          </g>
        </g>
      </g>
      <g id="OBJECTS" transform="translate(135.744 181.625)">
        <g id="Group_165" data-name="Group 165" transform="translate(582.124 106.623)">
          <g id="Group_138" data-name="Group 138" transform="translate(26.927 208.883)">
            <path id="Path_1832" data-name="Path 1832" d="M364.842,305.437Q355.883,419,346.922,532.558c-.44,5.592.249,13.121,4.815,14.076,4.779,1,7.409-6.426,8.244-12.216q16.414-113.693,23.954-228.92A27.394,27.394,0,0,1,364.842,305.437Z" transform="translate(-346.809 -106.169)" fill="#e0c4a2"/>
            <path id="Path_1833" data-name="Path 1833" d="M471.672,305.437Q480.632,419,489.591,532.558c.442,5.592-.248,13.121-4.813,14.076-4.779,1-7.41-6.426-8.246-12.216Q460.121,420.725,452.577,305.5A27.4,27.4,0,0,0,471.672,305.437Z" transform="translate(-251.192 -106.169)" fill="#e0c4a2"/>
            <rect id="Rectangle_269" data-name="Rectangle 269" width="195.984" height="138.938" rx="5.428" transform="translate(22.805)" fill="#75624b"/>
            <rect id="Rectangle_270" data-name="Rectangle 270" width="229.896" height="71.103" rx="5.428" transform="translate(5.849 137.446)" fill="#594834"/>
          </g>
          <g id="Group_164" data-name="Group 164" transform="translate(0)">
            <path id="Path_1834" data-name="Path 1834" d="M395.409,252.209a359.4,359.4,0,0,0-25.1,64.424c-2.753,9.75-4.9,20.94.638,29.427,5.072,7.776,14.927,10.657,24.012,12.568a327.7,327.7,0,0,0,96.8,5.685c9.528-.861,19.164-2.178,27.93-6.007S536.35,347.821,539.8,338.9c4.012-10.373,1.563-21.991-.933-32.831q-5.9-25.641-11.8-51.283C483.264,256.407,439.411,256.554,395.409,252.209Z" transform="translate(-301.181 54.595)" fill="#d5913e"/>
            <g id="Group_139" data-name="Group 139" transform="translate(134.065 362.028)">
              <path id="Path_1835" data-name="Path 1835" d="M403.078,281.213a51.573,51.573,0,0,0,25.546,8.941" transform="translate(-403.078 -281.213)" fill="none" stroke="#071b24" stroke-miterlimit="10" stroke-width="0.5"/>
              <path id="Path_1836" data-name="Path 1836" d="M405.976,286.245s6.586,3.2,10.5,2.439" transform="translate(-400.458 -276.664)" fill="none" stroke="#071b24" stroke-miterlimit="10" stroke-width="0.5"/>
            </g>
            <g id="Group_148" data-name="Group 148" transform="translate(0 343.191)">
              <g id="Group_143" data-name="Group 143" transform="translate(37.912 4.623)">
                <g id="Group_141" data-name="Group 141" transform="translate(0 246.552)">
                  <path id="Path_1837" data-name="Path 1837" d="M404.994,407.973,358.585,454.19c-2.155,2.146-4.37,4.383-5.444,7.228s-.676,6.485,1.742,8.328c31.749-12.02,63.5-14.543,95.25-26.565a6.689,6.689,0,0,0,2.74-1.575,6.518,6.518,0,0,0,1.215-3.928c.655-8.307.43-26.18-.666-34.44C437.92,406.911,422.038,408.994,404.994,407.973Z" transform="translate(-352.578 -403.238)" fill="#071b24"/>
                  <g id="Group_140" data-name="Group 140" transform="translate(3.909 11.465)">
                    <path id="Path_1838" data-name="Path 1838" d="M354.631,448.434c30.226-12.879,60.468-16.268,91.265-27.717" transform="translate(-354.631 -398.902)" fill="none" stroke="#ffefe8" stroke-miterlimit="10" stroke-width="0.5"/>
                    <path id="Path_1839" data-name="Path 1839" d="M365.481,420.292a7.533,7.533,0,0,1,6.367,4.633" transform="translate(-344.822 -399.286)" fill="none" stroke="#ffefe8" stroke-miterlimit="10" stroke-width="0.5"/>
                    <path id="Path_1840" data-name="Path 1840" d="M368.569,417.254a8.05,8.05,0,0,1,6.954,5.009" transform="translate(-342.031 -402.033)" fill="none" stroke="#ffefe8" stroke-miterlimit="10" stroke-width="0.5"/>
                    <path id="Path_1841" data-name="Path 1841" d="M395.183,427.4c-.655-5.219,1.954-10.558,6.083-13.816A22.065,22.065,0,0,1,416.1,409.3" transform="translate(-318.062 -409.26)" fill="none" stroke="#ffefe8" stroke-miterlimit="10" stroke-width="0.5"/>
                  </g>
                </g>
                <g id="Group_142" data-name="Group 142" transform="translate(23.055)">
                  <path id="Path_1842" data-name="Path 1842" d="M442.642,520.233c-8.111,3.458-16.317,6.973-25.055,8.206-8.718,1.217-18.159-.076-24.179-4.084a842.416,842.416,0,0,1-28.3-177.559,207.575,207.575,0,0,1-.209-22.052c.684-12.993,3.286-25.681,10.39-36.393.265-.4.531-.8.817-1.179,4.122-5.792,9.762-10.75,16.6-12.612a24.821,24.821,0,0,1,13.067.133,35.214,35.214,0,0,1,17.323,11.359,46.49,46.49,0,0,1,4.1,5.754c4.691,7.694,7.37,16.6,9.592,25.415C453.335,383.342,448.262,452.728,442.642,520.233Z" transform="translate(-364.687 -273.748)" fill="#e19c49"/>
                  <path id="Path_1843" data-name="Path 1843" d="M427.1,291.806c-10.524,11.226-39.623,27.656-62.3,32.938.684-12.993,3.286-25.681,10.39-36.393.265-.4.531-.8.817-1.179a34.987,34.987,0,0,1,16.6-12.612,24.821,24.821,0,0,1,13.067.133A35.214,35.214,0,0,1,423,286.052,46.487,46.487,0,0,1,427.1,291.806Z" transform="translate(-364.587 -273.748)" fill="#e19c49"/>
                  <path id="Path_1844" data-name="Path 1844" d="M435.154,385.457,375.9,394.077q3.43,14.709,7.372,29.29c6.013,4.016,15.455,5.308,24.179,4.076s16.944-4.731,25.044-8.2C433.429,408.023,434.347,396.754,435.154,385.457Z" transform="translate(-354.553 -172.76)" fill="#ffefe8"/>
                </g>
              </g>
              <g id="Group_147" data-name="Group 147">
                <g id="Group_145" data-name="Group 145" transform="translate(0 127.48)">
                  <path id="Path_1845" data-name="Path 1845" d="M388.579,379.548q-4.173,32.482-8.342,64.963c-.388,3.016-.811,6.135-2.412,8.72s-4.728,4.49-7.662,3.7c-9.829-32.5-27.186-59.2-37.014-91.7a6.672,6.672,0,0,1-.421-3.13,6.529,6.529,0,0,1,2.372-3.359c6.186-5.583,20.489-16.3,27.705-20.468C369.347,352.8,377.378,366.66,388.579,379.548Z" transform="translate(-332.666 -338.273)" fill="#071b24"/>
                  <g id="Group_144" data-name="Group 144" transform="translate(7.218 6.139)">
                    <path id="Path_1846" data-name="Path 1846" d="M370.126,440.531c-8.218-31.812-23.97-57.848-33.669-89.241" transform="translate(-336.457 -332.644)" fill="none" stroke="#ffefe8" stroke-miterlimit="10" stroke-width="0.5"/>
                    <path id="Path_1847" data-name="Path 1847" d="M362.987,381.607a7.536,7.536,0,0,0-7.553-2.222" transform="translate(-319.301 -307.487)" fill="none" stroke="#ffefe8" stroke-miterlimit="10" stroke-width="0.5"/>
                    <path id="Path_1848" data-name="Path 1848" d="M363.825,377.436a8.048,8.048,0,0,0-8.21-2.46" transform="translate(-319.138 -311.502)" fill="none" stroke="#ffefe8" stroke-miterlimit="10" stroke-width="0.5"/>
                    <path id="Path_1849" data-name="Path 1849" d="M342.517,369.113c4.537-2.662,7.178-7.985,7.243-13.246a22.068,22.068,0,0,0-5.651-14.37" transform="translate(-330.979 -341.497)" fill="none" stroke="#ffefe8" stroke-miterlimit="10" stroke-width="0.5"/>
                  </g>
                </g>
                <g id="Group_146" data-name="Group 146" transform="translate(30.102)">
                  <path id="Path_1850" data-name="Path 1850" d="M575.383,301.048a40.341,40.341,0,0,1-1.729,8.606c-.112.36-.227.7-.322,1.005a62.322,62.322,0,0,1-13.753,22.071,101.164,101.164,0,0,1-8.757,8.359,210.593,210.593,0,0,1-17.606,13.277,842.532,842.532,0,0,1-158,85.816c-6.856-2.334-13.618-9.04-17.987-16.675-4.33-7.694-6.554-16.336-8.757-24.865,50.07-45.624,101.981-91.934,164.492-119.133,9.214-4.008,18.918-7.637,28.892-8.13,1.386-.076,2.772-.076,4.158-.019a35.33,35.33,0,0,1,19.566,6.8,24.917,24.917,0,0,1,8.071,10.276A27.113,27.113,0,0,1,575.383,301.048Z" transform="translate(-348.476 -271.32)" fill="#e19c49"/>
                  <path id="Path_1851" data-name="Path 1851" d="M483.929,301.048a71.936,71.936,0,0,1-1.729,8.606c-.112.36-.227.7-.322,1.005-4.122,12.024-4.179,13.829-13.753,22.071-.1.1-.188.171-.3.267-15.634-21.407-20.192-48.512-17.418-61.618,1.386-.076,2.772-.076,4.158-.019a35.33,35.33,0,0,1,19.566,6.8,24.917,24.917,0,0,1,8.071,10.276A27.112,27.112,0,0,1,483.929,301.048Z" transform="translate(-257.021 -271.32)" fill="#e19c49"/>
                  <path id="Path_1852" data-name="Path 1852" d="M373.635,326.262q14.649,26.113,29.293,52.227-13.749,6.246-27.711,12.011c-6.849-2.317-13.629-9.014-17.972-16.679s-6.578-16.315-8.768-24.851C356.8,341.389,365.173,333.791,373.635,326.262Z" transform="translate(-348.475 -221.651)" fill="#ffefe8"/>
                </g>
              </g>
            </g>
            <g id="Group_154" data-name="Group 154" transform="translate(8.657 16.977)">
              <g id="Group_150" data-name="Group 150" transform="translate(225.148)">
                <path id="Path_1853" data-name="Path 1853" d="M480.279,193.844q11.587-38.771,21.308-78.065L541.762,133.2a656.323,656.323,0,0,1-17.719,101c-1.866,7.247-4.288,15.087-10.514,19.242-5.173,3.452-11.822,3.543-18.041,3.359a371.591,371.591,0,0,1-38.632-3.168c-.763-20.432-1.394-61.321-1.394-61.321S474.081,192.863,480.279,193.844Z" transform="translate(-455.462 -85.718)" fill="#b06748"/>
                <path id="Path_1854" data-name="Path 1854" d="M510.193,181.771c.444-2.548.881-5.1,1.272-7.65-20.828,1.314-34.356,18.694-40.775,29.438,3.675.219,7.351.4,11.032.507,6.219.185,12.867.093,18.041-3.359C505.9,196.611,508.338,188.932,510.193,181.771Z" transform="translate(-441.696 -32.975)" fill="#9c5638"/>
                <g id="Group_149" data-name="Group 149" transform="translate(45.803)">
                  <path id="Path_1855" data-name="Path 1855" d="M479.518,129.146c.025-4.9,3.342-8.14,7.372-10.916,1.222-.842,2.563-1.5,3.774-2.359,2.885-2.039,4.88-5.069,7.159-7.766s5.148-5.242,8.656-5.672,7.515,2.2,7.317,5.731a5.974,5.974,0,0,1,9.484,5.973c4.5-1.3,9.442,3.7,8.1,8.187,1.826-2.4,6.127-.419,6.723,2.54s-1.137,5.843-2.89,8.3A110.928,110.928,0,0,1,523.1,147.408a13.48,13.48,0,0,1-4.318,3.21,12.682,12.682,0,0,1-6.506.324,53.473,53.473,0,0,1-20.148-7.3C485.954,139.853,479.5,131.947,479.518,129.146Z" transform="translate(-479.518 -97.824)" fill="#b06748"/>
                  <path id="Path_1856" data-name="Path 1856" d="M496.459,132.072c2.047,1.253,4.716.406,6.832-.731a29.1,29.1,0,0,0,9.118-7.683" transform="translate(-464.203 -78.595)" fill="none" stroke="#4a281e" stroke-miterlimit="10" stroke-width="0.5"/>
                  <path id="Path_1857" data-name="Path 1857" d="M530.727,141.518a13.258,13.258,0,0,1-3.42-.969,18,18,0,0,1-4.977-3.913,395.342,395.342,0,0,1-28.661-31.814,15.3,15.3,0,0,0-4.408-4.16c-1.786-.931-4.217-.988-5.661.436-1.519,1.5-1.386,4.084-.322,5.927a15.405,15.405,0,0,0,4.577,4.349,210.423,210.423,0,0,1,37.25,34.421c.23,2.808,1.382,12.963,6.179,15.295,5.575,2.713,5.575-.15,3.918-2.411s-5.88-6.782-5.276-8.29,9.195,9.042,10.851,7.083-7.233-9.947-6.179-11.6,8.44,8.14,10.7,5.577S539.514,139.58,530.727,141.518Z" transform="translate(-476.849 -99.991)" fill="#75624b"/>
                  <path id="Path_1858" data-name="Path 1858" d="M497.991,103.756a79.083,79.083,0,0,0-9.926,11.7c-1.342,1.938-2.439,4.964-.508,6.318,1.352.946,3.21.24,4.638-.585,5.84-3.372,10.554-8.355,15.177-13.265l-9.452,11.02c-1.575,1.835-3.243,3.934-3.106,6.348a2.545,2.545,0,0,0,.621,1.655c.851.864,2.291.6,3.429.187,6.683-2.431,11.862-7.715,16.8-12.837q-5.966,6.566-11.929,13.132c-1.139,1.255-2.193,3.446-.773,4.366a2.544,2.544,0,0,0,1.816.2,17.01,17.01,0,0,0,6.321-3.025q6.386-4.273,12.519-8.9a145.406,145.406,0,0,0-11.333,11.519,4.4,4.4,0,0,0-1.211,2.037,2.994,2.994,0,0,0,2.43,3.123,7.243,7.243,0,0,0,4.248-.63,28.107,28.107,0,0,0,11.418-8.355" transform="translate(-473.193 -96.587)" fill="#b06748" stroke="#4a281e" stroke-miterlimit="10" stroke-width="0.5"/>
                  <path id="Path_1859" data-name="Path 1859" d="M484.893,111.434a63.72,63.72,0,0,1,17.6-3.041,6.506,6.506,0,0,1,2.517.27,2.373,2.373,0,0,1,1.594,1.824,2.775,2.775,0,0,1-.623,1.847c-1.19,1.664-7.907,5.451-9.815,6.19,3.741,5.4-1.506,11.257-1.506,11.257" transform="translate(-474.659 -92.405)" fill="#b06748" stroke="#4a281e" stroke-miterlimit="10" stroke-width="0.5"/>
                </g>
                <path id="Path_1860" data-name="Path 1860" d="M466.754,157.2s4.752,1.116,6.887-.613" transform="translate(-445.254 -48.823)" fill="none" stroke="#3d2119" stroke-miterlimit="10" stroke-width="0.5"/>
              </g>
              <g id="Group_152" data-name="Group 152" transform="translate(0 97.16)">
                <path id="Path_1861" data-name="Path 1861" d="M443.1,157.068c-9.474-3.277-20.979.925-30.007,5.278s-16.683,11.076-23.943,17.991a392.155,392.155,0,0,0-51.94,60.731,152.981,152.981,0,0,0,70.432,39.4c-1.436,29.59-3,68.251-4.44,97.844a1501.477,1501.477,0,0,0,160.214-.341c-5.354-38.52-6.226-86.713-2.86-125.458.175-2.032.425-4.21,1.767-5.744a9.494,9.494,0,0,1,4.046-2.342A146.509,146.509,0,0,1,595.383,237q-14.012-42.455-28.027-84.906l-52.5-1.013c-5.733-.11-11.517-.217-17.146.885-5.543,1.087-10.786,3.319-16.176,5.006C468.259,161.133,454.4,160.975,443.1,157.068Z" transform="translate(-337.213 -151.019)" fill="#ffa63a"/>
                <g id="Group_151" data-name="Group 151" transform="translate(4.082 1.718)">
                  <path id="Path_1862" data-name="Path 1862" d="M370.883,201.486c8.159,15.209,7.02,33.513,5.666,50.719" transform="translate(-310.857 -107.115)" fill="none" stroke="#165069" stroke-miterlimit="10" stroke-width="0.5"/>
                  <path id="Path_1863" data-name="Path 1863" d="M373.635,199.013a263.382,263.382,0,0,1,.889,35.693" transform="translate(-308.369 -109.351)" fill="none" stroke="#165069" stroke-miterlimit="10" stroke-width="0.5"/>
                  <path id="Path_1864" data-name="Path 1864" d="M457.417,191.763l-3.808,36.578" transform="translate(-236.071 -115.905)" fill="none" stroke="#165069" stroke-miterlimit="10" stroke-width="0.5"/>
                  <path id="Path_1865" data-name="Path 1865" d="M452.469,191.743q1.979,20.9,2.8,41.894" transform="translate(-237.102 -115.923)" fill="none" stroke="#165069" stroke-miterlimit="10" stroke-width="0.5"/>
                  <path id="Path_1866" data-name="Path 1866" d="M383.358,220.415a42.936,42.936,0,0,0,11.078,9.556" transform="translate(-299.579 -90.003)" fill="none" stroke="#165069" stroke-miterlimit="10" stroke-width="0.5"/>
                  <path id="Path_1867" data-name="Path 1867" d="M381.972,224.988q3.57,2.293,7.144,4.585" transform="translate(-300.832 -85.869)" fill="none" stroke="#165069" stroke-miterlimit="10" stroke-width="0.5"/>
                  <path id="Path_1868" data-name="Path 1868" d="M445.619,212.174a72.081,72.081,0,0,1-9.962,20.249" transform="translate(-252.3 -97.453)" fill="none" stroke="#165069" stroke-miterlimit="10" stroke-width="0.5"/>
                  <path id="Path_1869" data-name="Path 1869" d="M444.455,217.715q-2.308,4.318-4.617,8.637" transform="translate(-248.52 -92.444)" fill="none" stroke="#165069" stroke-miterlimit="10" stroke-width="0.5"/>
                  <path id="Path_1870" data-name="Path 1870" d="M339.357,196.571c20.518,14.65,41.542,29.552,65.744,36.612" transform="translate(-339.357 -111.559)" fill="none" stroke="#165069" stroke-miterlimit="10" stroke-width="0.5"/>
                  <path id="Path_1871" data-name="Path 1871" d="M454.794,151.922q11.864,42.766,24.425,85.338" transform="translate(-235 -151.922)" fill="none" stroke="#165069" stroke-miterlimit="10" stroke-width="0.5"/>
                </g>
              </g>
              <g id="Group_153" data-name="Group 153" transform="translate(3.967 201.949)">
                <path id="Path_1872" data-name="Path 1872" d="M405.761,230.718a232.287,232.287,0,0,0-1.834,26.7c16.959,1.192,78.6,17,82.042,17.026,3.025.021,24.49-4.787,37.326-.628,19.909,6.449,17.671,18.189,17.176,18.985-.862,1.388-143.287,3.732-181.4,2.515-6.34-.2-5.529-.2-10.788-4.027-5.59-4.069-8.46-11.5-8.911-18.772s1.2-14.48,3-21.5c3.69-14.4,9.99-44.965,9.99-44.965S385.3,227.683,405.761,230.718Z" transform="translate(-339.296 -206.055)" fill="#b06748"/>
                <path id="Path_1873" data-name="Path 1873" d="M381.292,273.688c1.249-23.041-27.473-38.216-39.206-43.429-1.683,6.666-3.142,13.5-2.715,20.379.451,7.268,3.321,14.7,8.911,18.772,5.259,3.831,4.448,3.825,10.788,4.027C364.855,273.621,372.471,273.7,381.292,273.688Z" transform="translate(-339.296 -184.174)" fill="#9c5638"/>
              </g>
            </g>
            <g id="Group_163" data-name="Group 163" transform="translate(77.775)">
              <g id="Group_155" data-name="Group 155" transform="translate(0 61.304)">
                <path id="Path_1874" data-name="Path 1874" d="M386.458,130.558a14.659,14.659,0,0,0-5.927-6.278c-1.792-1.009-4.223-1.556-5.769-.2-1.318,1.152-1.392,3.164-1.12,4.893a16.562,16.562,0,0,0,4.52,9.147,13.405,13.405,0,0,0,9.3,3.978C386.956,137.995,387.916,133.535,386.458,130.558Z" transform="translate(-373.514 -123.271)" fill="#b06748"/>
                <path id="Path_1875" data-name="Path 1875" d="M376.248,127.258s3.288,3.6,7.361,3.288" transform="translate(-371.042 -119.667)" fill="none" stroke="#301c14" stroke-miterlimit="10" stroke-width="0.5"/>
              </g>
              <path id="Path_1876" data-name="Path 1876" d="M459.938,199.672a254.79,254.79,0,0,0-2.631-43.533c-2.239-15.223-6.1-30.763-15.567-42.9-4.117-5.276-9.474-9.918-15.959-11.571a29.487,29.487,0,0,0-12.829-.01c-8.547,1.651-16.734,5.779-22.528,12.275-8.107,9.086-10.855,21.877-10.659,34.053.286,17.751,7.972,37.193,24.39,43.952,0,0-.9,9.069-.415,13.589C422.065,213.207,444.211,210.957,459.938,199.672Z" transform="translate(-367.873 -82.138)" fill="#b06748"/>
              <g id="Group_160" data-name="Group 160" transform="translate(11.556 56.103)">
                <path id="Path_1877" data-name="Path 1877" d="M392.16,151.97a21.952,21.952,0,0,0,21.422-7.157" transform="translate(-368.213 -98.596)" fill="none" stroke="#301c14" stroke-miterlimit="10" stroke-width="0.5"/>
                <g id="Group_158" data-name="Group 158" transform="translate(5.995)">
                  <path id="Path_1878" data-name="Path 1878" d="M392.086,122.159s.411,7.567-1.159,10.935a2.182,2.182,0,0,0,.4,2.57,4.482,4.482,0,0,0,4.608.76" transform="translate(-375.542 -119.075)" fill="#8f4e32" stroke="#301c14" stroke-miterlimit="10" stroke-width="0.5"/>
                  <path id="Path_1879" data-name="Path 1879" d="M400.165,131.761a5.748,5.748,0,0,1-6.439,3.355" transform="translate(-372.793 -110.395)" fill="none" stroke="#301c14" stroke-miterlimit="10" stroke-width="0.5"/>
                  <g id="Group_156" data-name="Group 156" transform="translate(26.884 0.298)">
                    <path id="Path_1880" data-name="Path 1880" d="M396.851,125.488a1.744,1.744,0,1,0,1.744-1.744A1.744,1.744,0,0,0,396.851,125.488Z" transform="translate(-396.851 -117.94)" fill="#301c14"/>
                    <path id="Path_1881" data-name="Path 1881" d="M404.023,124.238c.7-1.485-5.786-4.436-6.752-3.279S403.252,125.877,404.023,124.238Z" transform="translate(-396.554 -120.696)" fill="#301c14"/>
                  </g>
                  <g id="Group_157" data-name="Group 157">
                    <path id="Path_1882" data-name="Path 1882" d="M384.739,126.025a1.744,1.744,0,1,0,1.744-1.744A1.744,1.744,0,0,0,384.739,126.025Z" transform="translate(-380.917 -117.157)" fill="#301c14"/>
                    <path id="Path_1883" data-name="Path 1883" d="M389.714,120.978c-.624-1.519-7.18,1.276-6.978,2.768S390.4,122.654,389.714,120.978Z" transform="translate(-382.732 -120.539)" fill="#301c14"/>
                  </g>
                </g>
                <g id="Group_159" data-name="Group 159" transform="translate(0 11.538)">
                  <path id="Path_1884" data-name="Path 1884" d="M383.654,127.59c4.5,0,8.155,2.953,8.155,6.6s-3.652,6.6-8.155,6.6a9.932,9.932,0,0,1-1.272-.1,61.2,61.2,0,0,1-2.8-12.174A9.539,9.539,0,0,1,383.654,127.59Z" transform="translate(-379.583 -125.704)" fill="#8f4e32"/>
                  <ellipse id="Ellipse_105" data-name="Ellipse 105" cx="8.156" cy="6.595" rx="8.156" ry="6.595" transform="translate(45.342)" fill="#8f4e32"/>
                </g>
              </g>
              <g id="Group_161" data-name="Group 161" transform="translate(2.308)">
                <path id="Path_1885" data-name="Path 1885" d="M385.028,159.916a54.227,54.227,0,0,1,3.606-22.351c1.249-3.206,3.046-6.535,6.2-7.9,4.225-1.834,5.75,1.818,10.3,2.559,5.383.878,13.3-.813,18.389-2.768,4.482-1.719,9.783-3.781,13.762-1.095,1.634,1.1,2.7,11.978,4.629,17.309,2.569,7.092,12.376,15.672,19.4,18.41a25.462,25.462,0,0,1-1.085-8.364c.267-2.814,1.658-5.684,4.174-6.971q-.614-12.629-2.369-25.167c-.75-5.366-2.115-11.4-6.8-14.113s-10.664-.861-15.461,1.658c-.979-5.093-6.249-8.294-11.352-9.223s-10.371-.246-15.512-.918a29.956,29.956,0,0,1-18.5-9.9,10.228,10.228,0,0,0,3.395,13.737q-4.515-1.968-8.951-4.109c-4.358-2.1-8.913-4.573-11.194-8.84a27.552,27.552,0,0,0,3.5,30.032c-4.581,2.15-3.926,9.406-4.617,14.417s.794,17.157,1.8,17.7A19.041,19.041,0,0,1,385.028,159.916Z" transform="translate(-374.726 -91.074)" fill="#301c14"/>
                <path id="Path_1886" data-name="Path 1886" d="M427.527,107.187S427.665,95.3,416.062,96s-21.112,2.8-24.887,2.237" transform="translate(-359.856 -86.645)" fill="none" stroke="#301c14" stroke-miterlimit="10" stroke-width="0.5"/>
              </g>
              <g id="Group_162" data-name="Group 162" transform="translate(85.714 57.256)">
                <path id="Path_1887" data-name="Path 1887" d="M418.826,126.381a12.776,12.776,0,0,1,5.387-4.7,6.473,6.473,0,0,1,6.79.962,6.788,6.788,0,0,1,1.632,2.668,12,12,0,0,1-2.424,11.573,16.185,16.185,0,0,1-10.88,5.259A61.844,61.844,0,0,1,418.826,126.381Z" transform="translate(-418.531 -121.145)" fill="#b06748"/>
                <path id="Path_1888" data-name="Path 1888" d="M419.193,130.233s6.422-1.1,7.207-6.266" transform="translate(-417.933 -118.594)" fill="none" stroke="#301c14" stroke-miterlimit="10" stroke-width="0.5"/>
              </g>
            </g>
          </g>
        </g>
        <g id="Group_195" data-name="Group 195" transform="translate(193.533 62.137)">
          <g id="Group_167" data-name="Group 167" transform="translate(51.96 258.39)">
            <g id="Group_166" data-name="Group 166" transform="translate(0 202.717)">
              <path id="Path_1889" data-name="Path 1889" d="M174.211,309.885Q165.1,421.627,155.982,533.373c-.449,5.5.253,12.911,4.9,13.852,4.861.984,7.536-6.323,8.387-12.022q16.7-111.873,24.368-225.259A28.772,28.772,0,0,1,174.211,309.885Z" transform="translate(-155.866 -309.885)" fill="#e0c4a2"/>
              <path id="Path_1890" data-name="Path 1890" d="M282.89,309.885Q292,421.627,301.119,533.373c.449,5.5-.253,12.911-4.9,13.852-4.863.984-7.538-6.323-8.389-12.022q-16.7-111.873-24.368-225.259A28.772,28.772,0,0,0,282.89,309.885Z" transform="translate(-58.595 -309.885)" fill="#e0c4a2"/>
            </g>
            <rect id="Rectangle_271" data-name="Rectangle 271" width="199.374" height="141.342" rx="5.522" transform="translate(23.2 0)" fill="#75624b"/>
            <rect id="Rectangle_272" data-name="Rectangle 272" width="233.873" height="72.333" rx="5.522" transform="translate(5.95 139.824)" fill="#594834"/>
          </g>
          <g id="Group_194" data-name="Group 194">
            <g id="Group_177" data-name="Group 177" transform="translate(63.64 346.009)">
              <g id="Group_169" data-name="Group 169" transform="translate(16.973)">
                <path id="Path_1891" data-name="Path 1891" d="M199.312,249.435a365.648,365.648,0,0,0-25.537,65.54c-2.8,9.918-4.979,21.3.651,29.935,5.158,7.909,15.185,10.84,24.425,12.785a333.39,333.39,0,0,0,98.472,5.784c9.691-.876,19.5-2.218,28.412-6.114S342.69,346.7,346.2,337.625c4.08-10.552,1.588-22.37-.95-33.4q-6-26.087-12.009-52.17C288.687,253.706,244.075,253.854,199.312,249.435Z" transform="translate(-170.915 -249.435)" fill="#ffc987"/>
                <g id="Group_168" data-name="Group 168" transform="translate(4.877 15.249)">
                  <path id="Path_1892" data-name="Path 1892" d="M217.594,262.141s4.292,23.252-.716,28.619" transform="translate(-134.24 -253.198)" fill="none" stroke="#071b24" stroke-miterlimit="10" stroke-width="0.5"/>
                  <path id="Path_1893" data-name="Path 1893" d="M204.957,257.444s-11.089,43.286-31.481,42.212" transform="translate(-173.476 -257.444)" fill="none" stroke="#071b24" stroke-miterlimit="10" stroke-width="0.5"/>
                  <path id="Path_1894" data-name="Path 1894" d="M249.006,258.2s4.077,36.877,25.649,38.115" transform="translate(-105.196 -256.765)" fill="none" stroke="#071b24" stroke-miterlimit="10" stroke-width="0.5"/>
                </g>
              </g>
              <g id="Group_176" data-name="Group 176" transform="translate(0 34.979)">
                <g id="Group_172" data-name="Group 172" transform="translate(110.362 12.739)">
                  <g id="Group_170" data-name="Group 170" transform="translate(19.927 233.75)">
                    <path id="Path_1895" data-name="Path 1895" d="M284.117,408.842c-.126,4.482,4.377,10.843,8.134,13.29l15.274,9.95c5.187,3.38,10.44,6.814,14.573,11.424s7.085,10.613,6.734,16.8l-98.4-18.328c2.222-7.18,4.391-25.918,5.333-33.374C251.236,410.712,266.592,408.326,284.117,408.842Z" transform="translate(-230.429 -387.016)" fill="#071b24"/>
                    <path id="Path_1896" data-name="Path 1896" d="M283.008,399.339a110.768,110.768,0,0,0-.55,19.75,83.555,83.555,0,0,1-46.786.44,2.545,2.545,0,0,1-1.272-.645,2.6,2.6,0,0,1-.47-1.544q-.831-10.036-1.666-20.076A264.348,264.348,0,0,0,283.008,399.339Z" transform="translate(-228.77 -397.264)" fill="#ffc6b5"/>
                  </g>
                  <g id="Group_171" data-name="Group 171">
                    <path id="Path_1897" data-name="Path 1897" d="M303.646,512.7c3.319-51.443,5.9-102.973,5.379-154.521-.141-14.027-.535-28.212-4.2-41.751s-10.946-26.553-22.452-34.577-27.624-10.15-39.716-3.041c-13.246,7.791-18.783,24.084-20.925,39.3-2.351,16.725-1.874,33.707-1.283,50.588q2.53,72.232,7.7,144.34A745.374,745.374,0,0,1,303.646,512.7Z" transform="translate(-219.963 -274.497)" fill="#ffc987"/>
                    <path id="Path_1898" data-name="Path 1898" d="M227.951,294.268c-.925-.7-1.839-1.447-2.728-2.241A35.824,35.824,0,0,1,237.9,278.815c12.092-7.11,28.21-4.983,39.716,3.041C286,287.7,292.131,296.2,296.265,305.622,273.443,312.878,247.124,308.7,227.951,294.268Z" transform="translate(-215.209 -274.497)" fill="#145c7a"/>
                    <line id="Line_30" data-name="Line 30" x1="75.09" transform="translate(9.101 231.36)" fill="none" stroke="#071b24" stroke-miterlimit="10" stroke-width="0.5"/>
                  </g>
                </g>
                <g id="Group_175" data-name="Group 175">
                  <g id="Group_173" data-name="Group 173" transform="translate(231.088 40.545)">
                    <path id="Path_1899" data-name="Path 1899" d="M329.66,290.031l6.516,99.321c-4.707-2.317-9.379-5.527-11.778-8.126-4.17-4.547-7.058-10.1-9.922-15.569q-4.181-8.062-8.4-16.129c-2.064-3.953-7.938-9.038-12.386-9.352,1.177-17.443,5.025-32.445,4.429-48C305.494,291.966,322.15,291.5,329.66,290.031Z" transform="translate(-274.036 -288.26)" fill="#071b24"/>
                    <path id="Path_1900" data-name="Path 1900" d="M283.369,339.651a110.4,110.4,0,0,1,19.649,1.367,83.291,83.291,0,0,0,4.964-46.38,2.545,2.545,0,0,0-.516-1.325,2.579,2.579,0,0,0-1.485-.615l-19.76-3.6A263.469,263.469,0,0,1,283.369,339.651Z" transform="translate(-283.369 -289.101)" fill="#ffc6b5"/>
                  </g>
                  <g id="Group_174" data-name="Group 174">
                    <path id="Path_1901" data-name="Path 1901" d="M394.949,368.372c-51.523-1.693-103.061-4.126-154.313-9.651-13.947-1.5-28.027-3.271-41.146-8.235s-25.367-13.473-32.235-25.7-7.42-28.48.832-39.823c9.04-12.428,25.792-16.357,41.148-17.01,16.875-.718,33.73,1.407,50.472,3.635q71.646,9.533,142.91,21.679A745.683,745.683,0,0,0,394.949,368.372Z" transform="translate(-162 -267.806)" fill="#ffc987"/>
                    <path id="Path_1902" data-name="Path 1902" d="M178.782,268.786s48.394-.259,111.25,8.008" transform="translate(-146.829 -266.921)" fill="none" stroke="#071b24" stroke-miterlimit="10" stroke-width="0.5"/>
                    <path id="Path_1903" data-name="Path 1903" d="M184.433,273.793c-.6-.988-1.264-1.971-1.967-2.932A35.806,35.806,0,0,0,168.087,282.2c-8.252,11.342-7.7,27.593-.832,39.823,5.006,8.913,12.871,15.84,21.843,20.868C198.536,320.88,196.938,294.279,184.433,273.793Z" transform="translate(-162 -265.045)" fill="#ffc987"/>
                    <line id="Line_31" data-name="Line 31" y1="74.735" x2="7.291" transform="translate(226.083 25.671)" fill="none" stroke="#071b24" stroke-miterlimit="10" stroke-width="0.5"/>
                  </g>
                </g>
              </g>
            </g>
            <g id="Group_185" data-name="Group 185">
              <g id="Group_180" data-name="Group 180">
                <path id="Path_1904" data-name="Path 1904" d="M188.46,190.469c-4-27.149-7.664-58.187-10.358-85.5-14.332,3.89-27.507,6.057-41.839,9.947-1.7,34.767-1.5,75.182,2.237,109.789.819,7.569,2.112,15.815,7.77,20.908,4.707,4.233,11.386,5.3,17.673,6.019a378.126,378.126,0,0,0,39.356,2.456c3.755-20.459,10.365-61.53,10.365-61.53S194.843,190.387,188.46,190.469Z" transform="translate(-122.553 -34.023)" fill="#ffc6b5"/>
                <g id="Group_179" data-name="Group 179">
                  <path id="Path_1905" data-name="Path 1905" d="M142.4,138.486c-2.622-6.881-6.548-15.057-9.438-21.938-.859-2.045-1.571-4.771.143-6.18a5.915,5.915,0,0,1-1.993-10.615,7.714,7.714,0,0,1-1.954-4.876,4.113,4.113,0,0,1,2.976-3.978c-2.7-.672-3.962-4.208-2.837-6.752s3.979-3.989,6.755-4.149a18.675,18.675,0,0,1,8.069,1.809c8.553,3.528,16.258,8.795,23.894,14.019a33.392,33.392,0,0,1,7.1,5.893c3.33,4.017,10.059,24.554,8.89,29.611C172.924,132.214,152.37,135.906,142.4,138.486Z" transform="translate(-128.576 -56.617)" fill="#ffc6b5"/>
                  <g id="Group_178" data-name="Group 178" transform="translate(5.552)">
                    <path id="Path_1906" data-name="Path 1906" d="M165.193,130.429s4.9-42.22,6.434-62.408a201.755,201.755,0,0,0-40.135,1.647c.9,19.537,9.274,60.875,9.274,60.875Z" transform="translate(-131.492 -67.709)" fill="#fff"/>
                    <path id="Path_1907" data-name="Path 1907" d="M134.653,81.139l5.758,34.535q10.068.794,20.192.758,2.348-17.63,3.161-35.384a19.8,19.8,0,0,1-17.783,2.311C142.3,82.007,138.4,79.5,134.653,81.139Z" transform="translate(-128.634 -56.056)" fill="#94dfff"/>
                  </g>
                  <path id="Path_1908" data-name="Path 1908" d="M132.667,116.794a33.427,33.427,0,0,0,13.593.194,7,7,0,0,0,2.9-1.081,2.761,2.761,0,0,0,1.179-2.706c-.337-1.451-2.03-2.072-3.488-2.38a44.923,44.923,0,0,0-14.149-.691q5.895-.437,11.79-.878c1.523-.114,3.224-.314,4.193-1.495,1.259-1.531.524-4-1.011-5.249s-3.589-1.613-5.544-1.931q-5.518-.891-11.036-1.786,6.76.974,13.593,1.3c1.973.1,4.507-.246,5-2.157a3.073,3.073,0,0,0-.2-1.887c-.973-2.422-3.635-3.665-6.131-4.425a38.828,38.828,0,0,0-10.933-1.674q6.175.72,12.4.9a10.406,10.406,0,0,0,4.661-.609,3.734,3.734,0,0,0,2.336-3.741c-.274-1.6-1.851-2.6-3.328-3.273a28.864,28.864,0,0,0-17.431-2.007" transform="translate(-126.335 -55.992)" fill="#ffc6b5" stroke="#4a281e" stroke-miterlimit="10" stroke-width="0.5"/>
                  <path id="Path_1909" data-name="Path 1909" d="M156.8,107.588c-1.3-2.869-5.069-8.1-7.54-10.053-1.681-1.329-3.62-2.424-4.842-4.185s-1.407-4.518.308-5.8c1.283-.962,3.107-.739,4.592-.135a34.649,34.649,0,0,0,4.4,1.925c1.94.487,4.107.107,5.872,1.049a6.5,6.5,0,0,1,2.075,1.929,29.137,29.137,0,0,1,5.076,14.674" transform="translate(-115.109 -50.367)" fill="#ffc6b5" stroke="#4a281e" stroke-miterlimit="10" stroke-width="0.5"/>
                </g>
                <path id="Path_1910" data-name="Path 1910" d="M172.867,202.216c-3.029-23.848-26.373-36.871-36.578-41.466.366,4.591.784,9.111,1.262,13.536.819,7.568,2.112,15.815,7.772,20.908,4.7,4.233,11.384,5.3,17.671,6.019Q167.924,201.778,172.867,202.216Z" transform="translate(-121.604 16.401)" fill="#ff9f82"/>
                <path id="Path_1911" data-name="Path 1911" d="M160.51,147.81s.672,4.572,8.338,4.438" transform="translate(-99.708 4.703)" fill="none" stroke="#3d2119" stroke-miterlimit="10" stroke-width="0.5"/>
              </g>
              <g id="Group_182" data-name="Group 182" transform="translate(274.879 78.475)">
                <path id="Path_1912" data-name="Path 1912" d="M304.016,200.453q16.511-37.708,31.2-76.18l38.4,22.582a667.835,667.835,0,0,1-30.426,99.784c-2.784,7.087-6.2,14.7-13,18.122-5.653,2.845-12.376,2.112-18.633,1.154a378.385,378.385,0,0,1-38.615-7.993c1.765-20.725,6.205-62.09,6.205-62.09S297.879,198.692,304.016,200.453Z" transform="translate(-272.944 -95.05)" fill="#ffc6b5"/>
                <path id="Path_1913" data-name="Path 1913" d="M330,192.324c.765-2.517,1.523-5.036,2.233-7.568-21.194-1.257-37.008,14.613-44.824,24.665,3.684.678,7.376,1.314,11.078,1.881,6.257.958,12.98,1.691,18.633-1.154C323.823,206.775,327.237,199.325,330,192.324Z" transform="translate(-259.869 -40.436)" fill="#ff9f82"/>
                <g id="Group_181" data-name="Group 181" transform="translate(61.776)">
                  <path id="Path_1914" data-name="Path 1914" d="M305.406,136.14c.634-4.941,4.383-7.806,8.8-10.108,1.338-.7,2.774-1.2,4.1-1.914,3.164-1.7,5.556-4.511,8.193-6.953s5.849-4.653,9.444-4.652,7.313,3.157,6.676,6.693a6.078,6.078,0,0,1,8.835,7.209c4.707-.75,9.075,4.909,7.159,9.271,2.142-2.2,6.238.339,6.472,3.4s-1.872,5.76-3.947,8.022a113.029,113.029,0,0,1-13.993,12.881,13.719,13.719,0,0,1-4.758,2.706,12.9,12.9,0,0,1-6.611-.482,54.351,54.351,0,0,1-19.436-9.872C310.575,147.747,305.044,138.966,305.406,136.14Z" transform="translate(-305.389 -105.681)" fill="#ffc6b5"/>
                  <path id="Path_1915" data-name="Path 1915" d="M321.059,141.866c1.912,1.521,4.712,1,6.988.11a29.59,29.59,0,0,0,10.162-6.626" transform="translate(-291.223 -85.036)" fill="none" stroke="#4a281e" stroke-miterlimit="10" stroke-width="0.5"/>
                  <path id="Path_1916" data-name="Path 1916" d="M348.274,160.324a214.8,214.8,0,0,0-33.566-39.712,15.594,15.594,0,0,1-4.088-4.966c-.849-1.986-.649-4.6,1.061-5.925,1.632-1.262,4.08-.91,5.781.261a15.185,15.185,0,0,1,3.92,4.735A406.621,406.621,0,0,0,346.374,150.4a18.487,18.487,0,0,0,4.543,4.558,22.717,22.717,0,0,0,6.6,2.252c4.667,1.175,9.284,3,12.884,6.2s6.059,7.928,5.649,12.723-4.166,9.356-8.953,9.855c-5.828.609-10.754-4.511-13.128-9.869S351.042,164.545,348.274,160.324Z" transform="translate(-301.102 -108.925)" fill="#75624b"/>
                  <path id="Path_1917" data-name="Path 1917" d="M326.57,113.729A80.511,80.511,0,0,0,315.1,124.308c-1.6,1.79-3.079,4.709-1.3,6.316,1.245,1.123,3.21.642,4.754-.013,6.316-2.681,11.693-7.127,16.971-11.512l-10.91,9.954c-1.818,1.658-3.762,3.57-3.924,6.024a2.581,2.581,0,0,0,.423,1.748c.75.979,2.237.891,3.439.613,7.049-1.624,12.934-6.318,18.551-10.876l-13.673,11.78c-1.3,1.123-2.643,3.206-1.321,4.311a2.581,2.581,0,0,0,1.809.43,17.327,17.327,0,0,0,6.759-2.27q6.974-3.521,13.743-7.437A147.874,147.874,0,0,0,337.55,143.6a4.512,4.512,0,0,0-1.478,1.908,3.05,3.05,0,0,0,2.066,3.456,7.364,7.364,0,0,0,4.368-.11,28.582,28.582,0,0,0,12.566-7.018" transform="translate(-298.518 -104.582)" fill="#ffc6b5" stroke="#4a281e" stroke-miterlimit="10" stroke-width="0.5"/>
                  <path id="Path_1918" data-name="Path 1918" d="M311.627,119.619a64.875,64.875,0,0,1,18.145-.885,6.581,6.581,0,0,1,2.508.586,2.406,2.406,0,0,1,1.382,2.039,2.819,2.819,0,0,1-.857,1.788c-1.407,1.533-8.659,4.522-10.678,5.03,3.107,5.916-2.917,11.18-2.917,11.18" transform="translate(-299.75 -100.304)" fill="#ffc6b5" stroke="#4a281e" stroke-miterlimit="10" stroke-width="0.5"/>
                </g>
                <path id="Path_1919" data-name="Path 1919" d="M287.488,164.2s4.659,1.716,7.03.236" transform="translate(-259.796 -58.953)" fill="none" stroke="#3d2119" stroke-miterlimit="10" stroke-width="0.5"/>
              </g>
              <g id="Group_184" data-name="Group 184" transform="translate(66.76 149.727)">
                <path id="Path_1920" data-name="Path 1920" d="M257.008,147.564c-23.61,1.082-47.265,1.148-70.673-1.217q-11.347,40.941-22.7,81.88c9.589,5.217,19.977,8.966,32.184,9.052-.769,35.691-6.4,115.654-2.645,122.525,52.235,1.078,105.159,1.114,157.565-.209,1.9-5.664-2.867-75.218-1.123-104.742l1.923.286,19.87.7s15.487-48.076,16.51-86.8C343.681,161.667,299.441,154.294,257.008,147.564Z" transform="translate(-163.639 -146.347)" fill="#ffc987"/>
                <g id="Group_183" data-name="Group 183" transform="translate(8.401 3.244)">
                  <path id="Path_1921" data-name="Path 1921" d="M188.993,148.051a660.952,660.952,0,0,0-20.942,76.334" transform="translate(-168.051 -148.051)" fill="none" stroke="#704f27" stroke-miterlimit="10" stroke-width="0.5"/>
                  <path id="Path_1922" data-name="Path 1922" d="M287.856,159.513c-.362,26.39-10.4,51.565-20.284,76.035" transform="translate(-78.082 -137.689)" fill="none" stroke="#704f27" stroke-miterlimit="10" stroke-width="0.5"/>
                  <path id="Path_1923" data-name="Path 1923" d="M190.139,193.305a23.624,23.624,0,0,0,17.351,17.407" transform="translate(-148.083 -107.141)" fill="none" stroke="#704f27" stroke-miterlimit="10" stroke-width="0.5"/>
                  <path id="Path_1924" data-name="Path 1924" d="M230.907,233.03a54.643,54.643,0,0,1-19.158,10.777" transform="translate(-128.547 -71.228)" fill="none" stroke="#704f27" stroke-miterlimit="10" stroke-width="0.5"/>
                  <path id="Path_1925" data-name="Path 1925" d="M223.315,237.011a65.117,65.117,0,0,1-6.835,3.856" transform="translate(-124.27 -67.63)" fill="none" stroke="#704f27" stroke-miterlimit="10" stroke-width="0.5"/>
                  <path id="Path_1926" data-name="Path 1926" d="M264.9,195.915a26.108,26.108,0,0,1-15.244,14.693" transform="translate(-94.274 -104.781)" fill="none" stroke="#704f27" stroke-miterlimit="10" stroke-width="0.5"/>
                  <path id="Path_1927" data-name="Path 1927" d="M177.991,187.383a61.266,61.266,0,0,1,5.447,27.039" transform="translate(-159.065 -112.494)" fill="none" stroke="#704f27" stroke-miterlimit="10" stroke-width="0.5"/>
                  <path id="Path_1928" data-name="Path 1928" d="M266.085,192.456A108.029,108.029,0,0,0,261.1,230.2" transform="translate(-84.036 -107.908)" fill="none" stroke="#704f27" stroke-miterlimit="10" stroke-width="0.5"/>
                </g>
              </g>
            </g>
            <g id="Group_193" data-name="Group 193" transform="translate(129.714 48.951)">
              <g id="Group_186" data-name="Group 186">
                <path id="Path_1929" data-name="Path 1929" d="M269.456,101.426c-8.429-5.9-19.387-8.646-29.28-5.832s-18.161,11.784-18.694,22.056c-.164,3.142.341,6.4-.725,9.356-2.388,6.622-11.613,9.185-13.176,16.047-1.131,4.96,2.353,10.209.889,15.084-.87,2.894-3.3,4.99-5.267,7.287a27.373,27.373,0,0,0-6.4,19.927c5.293-1.19,10.8-.975,16.2-.459,20.063,1.914,39.672,7.862,59.817,8.465,8.182.246,16.378-.4,24.548.076s16.495,2.148,23.368,6.594a20.872,20.872,0,0,0,1.748-20.889,40.256,40.256,0,0,1-2.178-4.465c-2.788-8.134,5.247-16.639,3.679-25.095-.8-4.288-3.932-7.727-5.664-11.729-1.458-3.372-1.893-7.085-2.348-10.731-.769-6.167-1.666-12.408-4.153-18.1s-6.788-10.86-12.6-13.067c-3.726-1.415-7.816-1.535-11.8-1.31C280.845,95.01,273.981,96.44,269.456,101.426Z" transform="translate(-196.703 -92.456)" fill="#4a281e"/>
                <path id="Path_1930" data-name="Path 1930" d="M227.447,100.518c-3.208,10.664-16.569,16.378-18.322,27.374-.781,4.9.975,10.084-.548,14.808-1.066,3.305-3.591,5.895-5.51,8.791a26.926,26.926,0,0,0-3.22,22.515" transform="translate(-194.909 -87.001)" fill="none" stroke="#4a281e" stroke-miterlimit="10" stroke-width="0.5"/>
                <path id="Path_1931" data-name="Path 1931" d="M257.572,105.132c-.634,8.2,9.533,13.724,10.238,21.919.339,3.934-1.6,7.685-2.113,11.6-.819,6.3,2.091,12.431,3,18.718a30.281,30.281,0,0,1-4.244,20.188" transform="translate(-141.702 -82.83)" fill="none" stroke="#4a281e" stroke-miterlimit="10" stroke-width="0.5"/>
                <path id="Path_1932" data-name="Path 1932" d="M231.3,94.07a13.833,13.833,0,0,1,6.34,12.268" transform="translate(-165.431 -92.83)" fill="none" stroke="#4a281e" stroke-miterlimit="10" stroke-width="0.5"/>
                <path id="Path_1933" data-name="Path 1933" d="M237.634,93.419a25.586,25.586,0,0,0-2.675,13.869" transform="translate(-162.212 -93.419)" fill="none" stroke="#4a281e" stroke-miterlimit="10" stroke-width="0.5"/>
              </g>
              <g id="Group_187" data-name="Group 187" transform="translate(108.847 52.363)">
                <path id="Path_1934" data-name="Path 1934" d="M254.862,128.151a14.547,14.547,0,0,1,5.882-6.23c1.776-1,4.191-1.544,5.725-.2,1.306,1.142,1.38,3.142,1.11,4.855a16.423,16.423,0,0,1-4.484,9.078,13.309,13.309,0,0,1-9.225,3.947C254.367,135.531,253.415,131.106,254.862,128.151Z" transform="translate(-253.87 -120.92)" fill="#ffc6b5"/>
                <path id="Path_1935" data-name="Path 1935" d="M261.392,124.591a8.787,8.787,0,0,1-6.719,4.545" transform="translate(-253.144 -117.602)" fill="none" stroke="#3d2119" stroke-miterlimit="10" stroke-width="0.5"/>
                <circle id="Ellipse_106" data-name="Ellipse 106" cx="1.342" cy="1.342" r="1.342" transform="translate(3.374 13.818)" fill="#4a281e"/>
              </g>
              <path id="Path_1936" data-name="Path 1936" d="M213.192,198.942a287.74,287.74,0,0,1,2.61-46.083c2.222-15.1,6.059-30.527,15.449-42.566,4.084-5.236,9.4-9.842,15.838-11.481a29.27,29.27,0,0,1,12.73-.011,40.124,40.124,0,0,1,22.357,12.182c8.044,9.016,10.771,21.71,10.577,33.793-.284,17.616-7.913,36.907-24.2,43.615l.411,13.486C250.776,209.492,235.707,207.2,213.192,198.942Z" transform="translate(-181.869 -89.185)" fill="#ffc6b5"/>
              <g id="Group_188" data-name="Group 188" transform="translate(23.036 48.09)">
                <path id="Path_1937" data-name="Path 1937" d="M223.1,123.872a12.7,12.7,0,0,0-5.346-4.667,6.431,6.431,0,0,0-6.738.954,6.774,6.774,0,0,0-1.618,2.648,11.909,11.909,0,0,0,2.407,11.485A16.049,16.049,0,0,0,222.6,139.51,61.408,61.408,0,0,0,223.1,123.872Z" transform="translate(-208.802 -118.676)" fill="#ffc6b5"/>
                <path id="Path_1938" data-name="Path 1938" d="M212.08,121.811s2.62,5.036,6.245,5.236" transform="translate(-205.838 -115.842)" fill="none" stroke="#3d2119" stroke-miterlimit="10" stroke-width="0.5"/>
                <path id="Path_1939" data-name="Path 1939" d="M215.789,127.9a1.341,1.341,0,1,1-1.342-1.34A1.341,1.341,0,0,1,215.789,127.9Z" transform="translate(-204.91 -111.552)" fill="#4a281e"/>
              </g>
              <path id="Path_1940" data-name="Path 1940" d="M211.938,150.709a87.1,87.1,0,0,0,61.881,3.564" transform="translate(-182.93 -41.628)" fill="none" stroke="#3d2119" stroke-miterlimit="10" stroke-width="0.5"/>
              <path id="Path_1941" data-name="Path 1941" d="M232.6,143.328a25.3,25.3,0,0,0,23.183,2.024" transform="translate(-164.249 -48.3)" fill="none" stroke="#3d2119" stroke-miterlimit="10" stroke-width="0.5"/>
              <g id="Group_191" data-name="Group 191" transform="translate(67.833 48.232)">
                <path id="Path_1942" data-name="Path 1942" d="M243.092,120.957s.718,8.873,3.193,10.784c0,0-.788,3.488-4.95,2.814" transform="translate(-224.188 -116.756)" fill="#ff9f82" stroke="#3d2119" stroke-miterlimit="10" stroke-width="0.5"/>
                <path id="Path_1943" data-name="Path 1943" d="M236.781,130.715a5.766,5.766,0,0,0,6.458,3.364" transform="translate(-228.305 -107.934)" fill="none" stroke="#3d2119" stroke-miterlimit="10" stroke-width="0.5"/>
                <g id="Group_189" data-name="Group 189" transform="translate(0 0.299)">
                  <path id="Path_1944" data-name="Path 1944" d="M237.954,123.713a1.75,1.75,0,1,1-1.75-1.748A1.749,1.749,0,0,1,237.954,123.713Z" transform="translate(-230.409 -116.143)" fill="#3d2119"/>
                  <path id="Path_1945" data-name="Path 1945" d="M232.382,122.46c-.7-1.491,5.805-4.45,6.773-3.288S233.157,124.1,232.382,122.46Z" transform="translate(-232.329 -118.907)" fill="#4a281e"/>
                </g>
                <g id="Group_190" data-name="Group 190" transform="translate(29.199)">
                  <circle id="Ellipse_107" data-name="Ellipse 107" cx="1.749" cy="1.749" r="1.749" transform="translate(0 7.144)" fill="#3d2119"/>
                  <path id="Path_1946" data-name="Path 1946" d="M247.859,119.191c.626-1.525,7.2,1.279,7,2.776S247.168,120.872,247.859,119.191Z" transform="translate(-247.53 -118.751)" fill="#4a281e"/>
                </g>
              </g>
              <g id="Group_192" data-name="Group 192" transform="translate(48.541 59.803)">
                <path id="Path_1947" data-name="Path 1947" d="M256.413,125.822c-4.516,0-8.18,2.961-8.18,6.615s3.663,6.615,8.18,6.615a9.965,9.965,0,0,0,1.276-.1,61.278,61.278,0,0,0,2.807-12.21A9.592,9.592,0,0,0,256.413,125.822Z" transform="translate(-198.66 -123.929)" fill="#ff9f82"/>
                <path id="Path_1948" data-name="Path 1948" d="M238.558,131.443c0,3.654-3.663,6.615-8.182,6.615s-8.18-2.961-8.18-6.615,3.663-6.615,8.18-6.615S238.558,127.789,238.558,131.443Z" transform="translate(-222.197 -124.828)" fill="#ff9f82"/>
              </g>
              <path id="Path_1949" data-name="Path 1949" d="M217.121,144.527s1.512,7.127,2.266,10.691a47.972,47.972,0,0,0,13.02-26.715,16.628,16.628,0,0,1,2.016,6.9A63.864,63.864,0,0,1,254.4,129.88a11.122,11.122,0,0,0,3.435-.706c3.551-1.6,4.52-6.468,5-10.609a32.8,32.8,0,0,1-.206,12.167q5.235,1.548,10.47,3.1,2.625-5.926,5.251-11.851.337,5.729.674,11.46a3.74,3.74,0,0,0,.36,1.666,2.553,2.553,0,0,0,1.668,1.076c3.991.988,8.273-3.243,7.753-7.656q.962,14.454,1.923,28.909c1.727-6.243,3.985-13.185,9.417-15.952-2.82-16.915-6.386-28.76-20.257-37.01-6.114-3.637-19.581-6.384-26.559-6.34-8.857.055-18.465,2.068-25.059,8.475-9.031,8.779-11.546,17.983-13.711,30.94C214.259,139.362,217.121,144.527,217.121,144.527Z" transform="translate(-180.579 -89.16)" fill="#4a281e"/>
            </g>
          </g>
        </g>
        <g id="Group_226" data-name="Group 226" transform="translate(826.3)">
          <g id="Group_207" data-name="Group 207" transform="translate(0 302.74)">
            <g id="Group_199" data-name="Group 199" transform="translate(89.747 236.483)">
              <g id="Group_198" data-name="Group 198" transform="translate(17.306 160.795)">
                <g id="Group_196" data-name="Group 196" transform="translate(0 19.863)">
                  <path id="Path_1950" data-name="Path 1950" d="M556.134,436.425q-15.291,16.436-30.58,32.875c-5.28,5.674-10.92,13.623-7.243,20.447a549.7,549.7,0,0,0,110.066-48.714A59.506,59.506,0,0,0,611.04,413.16C592.769,421.844,574.013,429.5,556.134,436.425Z" transform="translate(-517.134 -413.16)" fill="#071b24"/>
                  <path id="Path_1951" data-name="Path 1951" d="M521.016,469.67l96.052-43.577" transform="translate(-513.624 -401.468)" fill="none" stroke="#ffefe8" stroke-miterlimit="10" stroke-width="0.5"/>
                </g>
                <g id="Group_197" data-name="Group 197" transform="translate(33.78)">
                  <path id="Path_1952" data-name="Path 1952" d="M534.875,422.794q3.421,11.244,5.744,22.785c19.021-3.84,38.871-8.547,53.322-21.494a3.657,3.657,0,0,0,1.266-1.717,3.787,3.787,0,0,0-.2-1.915q-2.525-8.862-5.046-17.724C571.379,410.017,552.71,417.086,534.875,422.794Z" transform="translate(-534.875 -402.728)" fill="#d68e6f"/>
                  <path id="Path_1953" data-name="Path 1953" d="M557.09,412.012a7.92,7.92,0,0,1-1.636,10.889" transform="translate(-516.271 -394.335)" fill="none" stroke="#0f0806" stroke-miterlimit="10" stroke-width="0.5"/>
                </g>
              </g>
              <path id="Path_1954" data-name="Path 1954" d="M588.879,319.556a1232.422,1232.422,0,0,0,36.363,155.3,187.71,187.71,0,0,1-67.269,29.783q-24.379-74.528-48.76-149.054c-.764-2.331-1.535-4.806-.979-7.2.508-2.182,2.051-3.958,3.612-5.565C531.509,322.585,563.157,315,588.879,319.556Z" transform="translate(-508.045 -318.278)" fill="#592c22"/>
            </g>
            <g id="Group_200" data-name="Group 200" transform="translate(116.095)">
              <path id="Path_1955" data-name="Path 1955" d="M558.256,320.364,539.949,561.691c-.451,5.942.253,13.941,4.918,14.956,4.882,1.063,7.57-6.828,8.423-12.982q16.768-120.8,24.472-243.238A26.981,26.981,0,0,1,558.256,320.364Z" transform="translate(-505.656 -79.908)" fill="#e0c4a2"/>
              <path id="Path_1956" data-name="Path 1956" d="M638.625,321.438l18.307,241.327c.449,5.943-.255,13.941-4.92,14.958-4.882,1.06-7.568-6.828-8.423-12.982q-16.768-120.8-24.472-243.238A27,27,0,0,0,638.625,321.438Z" transform="translate(-433.983 -78.937)" fill="#e0c4a2"/>
              <path id="Path_1957" data-name="Path 1957" d="M641.8,408.974c-5.971.352-11-5.149-12.262-11s.3-11.892,1.864-17.665q23.4-86.163,53.017-170.476c2.49-7.089,6.616-15.424,14.122-15.752,6.154-.268,11.165,5.653,12.129,11.738s-1.051,12.2-3.039,18.035q-31.136,91.324-62.273,182.651C644.719,408.381,642.956,410.7,641.8,408.974Z" transform="translate(-424.978 -194.075)" fill="#75624b"/>
              <rect id="Rectangle_273" data-name="Rectangle 273" width="234.87" height="54.335" rx="5.545" transform="translate(0 206.73)" fill="#594834"/>
            </g>
            <g id="Group_206" data-name="Group 206" transform="translate(0 127.656)">
              <g id="Group_203" data-name="Group 203" transform="translate(0 311.861)">
                <g id="Group_201" data-name="Group 201" transform="translate(0 22.879)">
                  <path id="Path_1958" data-name="Path 1958" d="M516.344,437.351l-40.853,18.627c-7.052,3.216-15.31,8.395-14.531,16.106a549.66,549.66,0,0,0,120.332-2.767,59.5,59.5,0,0,0-5.318-32.389C555.771,437.939,535.51,437.815,516.344,437.351Z" transform="translate(-460.909 -436.928)" fill="#071b24"/>
                  <path id="Path_1959" data-name="Path 1959" d="M465.639,454.191l105.422-3.4" transform="translate(-456.633 -424.395)" fill="none" stroke="#ffefe8" stroke-miterlimit="10" stroke-width="0.5"/>
                </g>
                <g id="Group_202" data-name="Group 202" transform="translate(56.026)">
                  <path id="Path_1960" data-name="Path 1960" d="M493.769,424.912q-1.157,11.7-3.435,23.248c19.038,3.747,39.175,7.016,57.488.6a3.678,3.678,0,0,0,1.828-1.1,3.766,3.766,0,0,0,.548-1.847l2.14-18.3C532.38,427.115,512.428,426.483,493.769,424.912Z" transform="translate(-490.334 -424.912)" fill="#d68e6f"/>
                  <path id="Path_1961" data-name="Path 1961" d="M515.117,431.977a7.92,7.92,0,0,1-5.687,9.429" transform="translate(-473.071 -418.525)" fill="none" stroke="#0f0806" stroke-miterlimit="10" stroke-width="0.5"/>
                </g>
              </g>
              <g id="Group_205" data-name="Group 205" transform="translate(47.694)">
                <path id="Path_1962" data-name="Path 1962" d="M645.84,261.121A1265.068,1265.068,0,0,0,536.835,328.9c-8.936,6.207-17.966,12.7-24.282,21.557-7.559,10.6-10.607,23.707-12.785,36.544-4.12,24.292-5.71,48.931-7.25,73.522q-3.382,54.013-6.493,108.042c-.124,2.171-.2,4.518,1.017,6.318,1.517,2.243,4.493,2.866,7.171,3.269a303.6,303.6,0,0,0,79.253,1.447A1584.91,1584.91,0,0,1,592.7,399.956s134.484-31.312,153.054-46.022c11.041-8.745,19.56-21.7,19.76-35.782C725.714,298.126,685.916,278.1,645.84,261.121Z" transform="translate(-485.958 -261.121)" fill="#396f61"/>
                <g id="Group_204" data-name="Group 204" transform="translate(0.664 57.621)">
                  <path id="Path_1963" data-name="Path 1963" d="M534.669,339.939s2.014-4.031,18.138-6.047" transform="translate(-442.587 -252.956)" fill="none" stroke="#3b1813" stroke-miterlimit="10" stroke-width="0.5"/>
                  <path id="Path_1964" data-name="Path 1964" d="M521.815,536.41S534.663,357.457,541.088,354.7s151.419-19.271,174.362-63.32" transform="translate(-454.207 -291.384)" fill="none" stroke="#3b1813" stroke-miterlimit="10" stroke-width="0.5"/>
                  <path id="Path_1965" data-name="Path 1965" d="M486.307,420.638s46.711,9.768,86.2,2.972" transform="translate(-486.307 -174.536)" fill="none" stroke="#3b1813" stroke-miterlimit="10" stroke-width="0.5"/>
                </g>
              </g>
            </g>
          </g>
          <g id="Group_218" data-name="Group 218" transform="translate(58.08)">
            <g id="Group_214" data-name="Group 214" transform="translate(54.122)">
              <g id="Group_211" data-name="Group 211">
                <path id="Path_1966" data-name="Path 1966" d="M519.878,156.087c.748,12.658,5.5,25.975,13.042,38.8,11.854,20.2,39.533,38.65,54.862,49.188,9.269-14.21,26.517-37.6,36.439-50.965-13.355-8.943-45.691-40.735-45.691-40.735s33.8-52.324,57.5-78.286c-10.051-7.8-19-16.158-30-23.185-27.014,17.443-63.078,51.711-78.577,79.978C522.336,140.217,519.465,148.9,519.878,156.087Z" transform="translate(-519.838 -20.768)" fill="#d68e6f"/>
                <g id="Group_209" data-name="Group 209" transform="translate(79.631)">
                  <path id="Path_1967" data-name="Path 1967" d="M561.661,70.2c7.747-10.588,15.9-20.746,24.562-30.619,2.039-2.323,4.208-4.111,7.355-4.484a1.793,1.793,0,0,1,1.792.7c.952,1.39.345,2.856-.43,4.21-2.467,4.3-4.994,8.547-7.523,12.8,4.967-4.533,9.867-9.172,14.768-13.77a10.684,10.684,0,0,1,4.545-2.911,3.322,3.322,0,0,1,4.113,2.26c.369,1.708-.691,2.744-1.62,3.875-4.175,5.07-8.477,9.916-12.751,14.849,5.657-4.573,11.443-9.448,17-14.025,1.969-1.622,4.77-3.239,6.628-1.148s-.017,4.269-1.5,6.015c-4.5,5.293-9.347,10.493-14,15.683,3.6-2.845,7.1-5.84,10.7-8.7A8.676,8.676,0,0,1,619.2,52.7c1.563-.246,3.155-.122,3.747,1.691s-.583,3.469-1.914,4.9c-4.259,4.572-8.627,9.334-12.785,14.061a83.628,83.628,0,0,1,11-3.751c1.156-.278,2.184-.708,3.395.152a3.163,3.163,0,0,1,.564,4.24,10.864,10.864,0,0,1-3.842,3.075,262.746,262.746,0,0,0-25.289,16.072Q577.541,82.105,561.661,70.2Z" transform="translate(-561.661 -35.075)" fill="#d68e6f"/>
                  <g id="Group_208" data-name="Group 208" transform="translate(22.591 24.177)">
                    <path id="Path_1968" data-name="Path 1968" d="M573.526,47.773s5.072,8.265,3.945,15.027" transform="translate(-573.526 -47.773)" fill="none" stroke="#301c14" stroke-miterlimit="10" stroke-width="0.5"/>
                    <path id="Path_1969" data-name="Path 1969" d="M587.708,58.549s-5.822-7.136-12.209-6.2" transform="translate(-571.742 -43.711)" fill="none" stroke="#301c14" stroke-miterlimit="10" stroke-width="0.5"/>
                  </g>
                </g>
                <g id="Group_210" data-name="Group 210" transform="translate(0 104.42)">
                  <path id="Path_1970" data-name="Path 1970" d="M519.878,120.815c.695,11.752,4.872,24.065,11.5,36.028,16.47-16.628,4.08-54.582-.575-66.926-1.2,1.919-2.323,3.819-3.349,5.691C522.336,104.945,519.465,113.63,519.878,120.815Z" transform="translate(-519.838 -89.917)" fill="#c27a5b"/>
                  <path id="Path_1971" data-name="Path 1971" d="M550.175,102.284a7.622,7.622,0,0,0,2.62,5.466" transform="translate(-492.414 -78.737)" fill="none" stroke="#301c14" stroke-miterlimit="10" stroke-width="0.5"/>
                </g>
              </g>
              <g id="Group_213" data-name="Group 213" transform="translate(25.563 137.257)">
                <path id="Path_1972" data-name="Path 1972" d="M651.728,167.505q-31.659-31.6-66-60.342-27.532,36.86-52.46,75.578,33.467,30.42,66.93,60.841a13.671,13.671,0,0,1,3.8,4.652c.9,2.212.588,4.707.257,7.073-6.654,47.621-13.309,95.241-17.711,141.478A482.828,482.828,0,0,0,729.854,469.21c10.948-41.024,15.312-83.518,17.839-125.9,1.544-25.876,2.416-51.791,2.458-77.712.029-17.7-2.881-35.1-5.75-52.566-5.992-36.456-50.055-51.468-50.055-51.468S665.311,168.638,651.728,167.505Z" transform="translate(-533.264 -107.163)" fill="#305d51"/>
                <g id="Group_212" data-name="Group 212" transform="translate(4.88 6.335)">
                  <path id="Path_1973" data-name="Path 1973" d="M569.843,175.553a94.085,94.085,0,0,1,.88,28.511" transform="translate(-505.076 -51.672)" fill="none" stroke="#3b1813" stroke-miterlimit="10" stroke-width="0.5"/>
                  <path id="Path_1974" data-name="Path 1974" d="M588.1,262.912a76.4,76.4,0,0,0,27.176-10.223" transform="translate(-488.568 18.06)" fill="none" stroke="#3b1813" stroke-miterlimit="10" stroke-width="0.5"/>
                  <path id="Path_1975" data-name="Path 1975" d="M593.562,263.881a61.424,61.424,0,0,0,13.716-6.291" transform="translate(-483.634 22.491)" fill="none" stroke="#3b1813" stroke-miterlimit="10" stroke-width="0.5"/>
                  <path id="Path_1976" data-name="Path 1976" d="M535.827,184.9a821.682,821.682,0,0,1,53.24-74.409" transform="translate(-535.827 -110.49)" fill="none" stroke="#3b1813" stroke-miterlimit="10" stroke-width="0.5"/>
                </g>
              </g>
            </g>
            <g id="Group_217" data-name="Group 217" transform="translate(0 200.356)">
              <g id="Group_215" data-name="Group 215" transform="translate(0 112.855)">
                <path id="Path_1977" data-name="Path 1977" d="M715.428,199.575c-2.934,7.372-13.629,32.279-14.865,33.7-2.23,2.567-82.023,37.414-142.078,53.91-6.06,1.664-31.826-12.346-52.128-.274-5.432,3.231-12.378,10.609-14.945,16.774,4.366,2.628,39.676.725,60.011,1.19,34.3.783,68.76,1.557,102.773-3.288,18.423-2.626,36.669-6.893,55.215-8.136,3.166-.213,6.413-.354,9.339-1.674,3.243-1.462,5.8-4.236,8.227-6.98a377.784,377.784,0,0,0,41.07-56.167A481.182,481.182,0,0,0,715.428,199.575Z" transform="translate(-491.413 -199.575)" fill="#d68e6f"/>
                <path id="Path_1978" data-name="Path 1978" d="M644.091,234.452c-27.686-4.728-42.347,21.083-46.41,29.676,5.2-.731,10.421-1.339,15.662-1.689,3.166-.213,6.413-.354,9.339-1.674,3.243-1.462,5.8-4.236,8.227-6.98q8.068-9.119,15.554-18.816C645.719,234.774,644.937,234.6,644.091,234.452Z" transform="translate(-395.345 -168.564)" fill="#c27a5b"/>
                <path id="Path_1979" data-name="Path 1979" d="M608.79,215.548a76.21,76.21,0,0,1-9.255,5.383" transform="translate(-393.67 -185.135)" fill="none" stroke="#3b1813" stroke-miterlimit="10" stroke-width="0.5"/>
              </g>
              <g id="Group_216" data-name="Group 216" transform="translate(215.561)">
                <path id="Path_1980" data-name="Path 1980" d="M653.88,140.3c-9.256.834-13.682,6.531-17.747,14.888a374.313,374.313,0,0,0-31.327,92.543,3,3,0,0,0,1.716,4.1,679.083,679.083,0,0,0,76.273,36.591c2.787-21.658,5.582-43.4,5.449-65.234s-3.29-43.918-11.969-63.956A32.353,32.353,0,0,0,653.88,140.3Z" transform="translate(-604.627 -140.303)" fill="#294a41"/>
                <path id="Path_1981" data-name="Path 1981" d="M606.26,195.026q36.711,17.071,72.524,35.992" transform="translate(-603.15 -90.832)" fill="none" stroke="#3b1813" stroke-miterlimit="10" stroke-width="0.5"/>
              </g>
            </g>
          </g>
          <g id="Group_225" data-name="Group 225" transform="translate(210.56 79.096)">
            <g id="Group_219" data-name="Group 219" transform="translate(0 53.016)">
              <path id="Path_1982" data-name="Path 1982" d="M584.752,112.972a15.032,15.032,0,0,0-5.434-7.016c-1.754-1.238-4.235-2.1-6.028-.963-1.523.969-1.854,2.959-1.784,4.711a16.234,16.234,0,0,0,3.6,9.678,14.577,14.577,0,0,0,9.254,5.177C584.344,120.421,585.907,116.12,584.752,112.972Z" transform="translate(-571.496 -104.46)" fill="#d68e6f"/>
              <path id="Path_1983" data-name="Path 1983" d="M573.89,108.765s1.268,3.785,6.877,3.751" transform="translate(-569.333 -100.569)" fill="none" stroke="#301c14" stroke-miterlimit="10" stroke-width="0.5"/>
            </g>
            <path id="Path_1984" data-name="Path 1984" d="M655.87,189.129s1.575-37.772,1.152-52.351c-.446-15.409-1.03-22.576-9.44-35.87-3.66-5.784-8.7-11.1-15.295-13.6a32.912,32.912,0,0,0-13.458-1.706c-9.172.512-18.275,3.53-25.167,9.215-9.638,7.951-14.12,20.291-15.436,32.406-1.919,17.664,3.677,38.952,22.3,48.155l-.914,12.669C617.876,198.091,637.963,198.257,655.87,189.129Z" transform="translate(-565.735 -68.558)" fill="#d68e6f"/>
            <path id="Path_1985" data-name="Path 1985" d="M588.061,134.2a23.982,23.982,0,0,0,23.366-4.278" transform="translate(-556.522 -28.429)" fill="none" stroke="#301c14" stroke-miterlimit="10" stroke-width="0.5"/>
            <path id="Path_1986" data-name="Path 1986" d="M581.7,141.579a53.712,53.712,0,0,1-2.487-26.182,4.429,4.429,0,0,0,.017-2,4.69,4.69,0,0,0-.937-1.476,24.663,24.663,0,0,1-5.4-16.6c.135-2.635.96-5.6,3.325-6.765,1.854-.914,4.1-.421,5.971.457s3.578,2.117,5.545,2.755a13.588,13.588,0,0,1-.1-6.959,7.633,7.633,0,0,1,4.444-5.124c2.565-.944,5.447-.088,7.869,1.179s4.653,2.946,7.251,3.8c.326-2.4-.725-5.251.927-7.02,1.605-1.719,4.45-.963,6.575.044a57.577,57.577,0,0,1,12.422,7.995c-.373-2.19-.288-5.162,1.853-5.76a4.094,4.094,0,0,1,2.982.657c7.913,4.366,11.7,14.1,19.606,18.48,3.186-3.022,8.827-1.651,11.59,1.761s3.313,8.084,3.343,12.475c.088,12.348-3.047,24.474-6.487,36.332a61.361,61.361,0,0,1-16.034-29.318,11.911,11.911,0,0,1-19.859-6.9,13.954,13.954,0,0,1-22.844.152,15.679,15.679,0,0,1-15.263,11.575A38.767,38.767,0,0,1,581.7,141.579Z" transform="translate(-570.264 -76.616)" fill="#4a281e"/>
            <g id="Group_222" data-name="Group 222" transform="translate(18.544 52.332)">
              <path id="Path_1987" data-name="Path 1987" d="M592.644,104.817s-1.062,10.147-3.532,13.321a2.359,2.359,0,0,0-.2,2.807,4.845,4.845,0,0,0,4.674,1.914" transform="translate(-574.634 -103.454)" fill="#c27a5b" stroke="#301c14" stroke-miterlimit="10" stroke-width="0.5"/>
              <path id="Path_1988" data-name="Path 1988" d="M599.878,115.534a6.216,6.216,0,0,1-7.081,3.4" transform="translate(-570.784 -93.766)" fill="none" stroke="#301c14" stroke-miterlimit="10" stroke-width="0.5"/>
              <g id="Group_220" data-name="Group 220" transform="translate(28.072 1.124)">
                <path id="Path_1989" data-name="Path 1989" d="M595.981,110.112a1.887,1.887,0,1,0,1.948-1.824A1.887,1.887,0,0,0,595.981,110.112Z" transform="translate(-595.979 -101.442)" fill="#301c14"/>
                <path id="Path_1990" data-name="Path 1990" d="M603.919,109.294c.426-.836,1.095-2.359-2.723-3.884-3.4-1.361-3.951-.474-4.461.1-.562.63-1.268,2.192,2.584,3.905C602.9,111.006,603.489,110.136,603.919,109.294Z" transform="translate(-595.698 -104.691)" fill="#301c14"/>
              </g>
              <g id="Group_221" data-name="Group 221">
                <path id="Path_1991" data-name="Path 1991" d="M583.387,110.279a1.887,1.887,0,1,0,1.948-1.824A1.887,1.887,0,0,0,583.387,110.279Z" transform="translate(-579.292 -100.167)" fill="#301c14"/>
                <path id="Path_1992" data-name="Path 1992" d="M589.047,105.213c-.659-1.418-2.654-1.3-4.488-.63-1.879.691-3.93,1.727-3.155,3.376s2.569,1.161,4.669.381C587.864,107.673,589.706,106.631,589.047,105.213Z" transform="translate(-581.236 -104.101)" fill="#301c14"/>
              </g>
            </g>
            <g id="Group_223" data-name="Group 223" transform="translate(11.831 66.876)">
              <path id="Path_1993" data-name="Path 1993" d="M582.143,111.895c4.87.16,8.713,3.482,8.583,7.42s-4.181,7-9.052,6.841A10.745,10.745,0,0,1,580.3,126a66.241,66.241,0,0,1-2.591-13.263A10.334,10.334,0,0,1,582.143,111.895Z" transform="translate(-577.71 -111.605)" fill="#c27a5b"/>
              <path id="Path_1994" data-name="Path 1994" d="M603.388,118.587c-.13,3.938,3.715,7.26,8.583,7.42s8.924-2.9,9.054-6.841-3.715-7.26-8.583-7.42S603.517,114.649,603.388,118.587Z" transform="translate(-554.5 -111.74)" fill="#c27a5b"/>
            </g>
            <g id="Group_224" data-name="Group 224" transform="translate(83.593 62.494)">
              <path id="Path_1995" data-name="Path 1995" d="M616.879,113.628a13.339,13.339,0,0,1,6.239-3.958,7.155,7.155,0,0,1,7,1.851,6.782,6.782,0,0,1,1.379,2.864,11.535,11.535,0,0,1-3.991,11.173,17.5,17.5,0,0,1-12.07,3.785A58.727,58.727,0,0,1,616.879,113.628Z" transform="translate(-615.4 -109.439)" fill="#d68e6f"/>
              <path id="Path_1996" data-name="Path 1996" d="M616.509,116.8s6.849.225,9.455-4.587" transform="translate(-614.397 -106.932)" fill="none" stroke="#301c14" stroke-miterlimit="10" stroke-width="0.5"/>
            </g>
            <path id="Path_1997" data-name="Path 1997" d="M588.086,137.74s19.954,22.448,60.839,2.877" transform="translate(-556.499 -21.36)" fill="none" stroke="#301c14" stroke-miterlimit="10" stroke-width="0.5"/>
          </g>
        </g>
        <g id="Group_247" data-name="Group 247" transform="translate(234.539 324.648)">
          <g id="Group_235" data-name="Group 235" transform="translate(0 81.346)">
            <rect id="Rectangle_276" data-name="Rectangle 276" width="754.22" height="21.605" fill="#45271a"/>
            <rect id="Rectangle_277" data-name="Rectangle 277" width="17.677" height="362.793" transform="translate(366.307 14.752)" fill="#45271a"/>
            <path id="Path_2020" data-name="Path 2020" d="M365.327,440.178l-38.3,31.426h76.6Z" transform="translate(9.819 -74.849)" fill="#45271a"/>
          </g>
          <g id="Group_246" data-name="Group 246" transform="translate(159.132 0)">
            <g id="Group_239" data-name="Group 239" transform="translate(121.91 9.909)">
              <g id="Group_236" data-name="Group 236" transform="translate(10.936 0.572)">
                <circle id="Ellipse_108" data-name="Ellipse 108" cx="14.381" cy="14.381" r="14.381" transform="translate(0 0.12)" fill="#ff6b61"/>
                <circle id="Ellipse_109" data-name="Ellipse 109" cx="14.381" cy="14.381" r="14.381" transform="matrix(0.64, -0.768, 0.768, 0.64, 67.267, 22.104)" fill="#ff6b61"/>
              </g>
              <g id="Group_237" data-name="Group 237" transform="translate(29.465)">
                <path id="Path_2021" data-name="Path 2021" d="M313.193,229.227q8.257-6.7,16.514-13.408a13.33,13.33,0,0,1,5.36-3.1c2.039-.434,4.507.379,5.248,2.327.752,1.978-.487,4.109-1.676,5.861,5.533-4.884,11.752-10.042,19.132-10.118,1.588-.017,3.5.465,3.968,1.984a3.761,3.761,0,0,1-.2,2.237,16.066,16.066,0,0,1-4.029,6.489,21.54,21.54,0,0,1,10.057-4.872c2.315-.438,5.036-.358,6.607,1.4,2.43,2.723.246,7.167-2.715,9.3-5.55,4-12.905,4.094-19.745,4.033l-37.709-.327C314.206,230.089,314.667,229.206,313.193,229.227Z" transform="translate(-313.193 -210.786)" fill="#56ba59"/>
                <path id="Path_2022" data-name="Path 2022" d="M351.2,225.18A27.133,27.133,0,0,1,365.107,215a3.53,3.53,0,0,1,3.029.046c.729.5,1,1.443,1.54,2.142,1.1,1.4,3.2,1.639,4.9,1.116a20.6,20.6,0,0,0,4.655-2.591,25.184,25.184,0,0,1,8.806-3.414c1.3-.238,2.949-.219,3.593.939.5.9.1,2.041.316,3.052.4,1.934,2.869,2.727,4.8,2.291s3.572-1.672,5.423-2.361,4.284-.647,5.411.975c1.053,1.512.463,3.578-.244,5.278A57.394,57.394,0,0,1,403,230.864a12.586,12.586,0,0,1-3.107,3.68,12.829,12.829,0,0,1-5.836,1.914c-11.013,1.554-22.2.411-33.267-.733-3.088-.32-6.432-.754-8.65-2.928S350.314,226.441,351.2,225.18Z" transform="translate(-279.468 -209.527)" fill="#56ba59"/>
              </g>
              <g id="Group_238" data-name="Group 238" transform="translate(0 15.43)">
                <path id="Path_2023" data-name="Path 2023" d="M297.718,222.8c2.822,15.8,6.363,32.856,18.448,43.417,10.417,9.1,25.042,11.384,38.85,12.264a282.128,282.128,0,0,0,49.632-1.213c12.9-1.458,26.39-4.13,36.163-12.667,10.649-9.3,15-24.242,14.573-38.377a4.491,4.491,0,0,0-.863-3.016,4.625,4.625,0,0,0-3.079-1.047C400.31,217.794,348.822,217.6,297.718,222.8Z" transform="translate(-297.718 -218.889)" fill="#ff9061"/>
                <path id="Path_2024" data-name="Path 2024" d="M323.691,230.9c-5.236-.592-11.485,1.205-13.282,6.159-1.759,4.846,2.355,10.615,7.483,11.148s10.089-3.58,11.205-8.612C329.869,236.1,328.319,231.422,323.691,230.9Z" transform="translate(-286.619 -208.131)" fill="#ffa47d"/>
                <path id="Path_2025" data-name="Path 2025" d="M302.873,225.752a1017.657,1017.657,0,0,1,138.965.143" transform="translate(-293.058 -214.769)" fill="none" stroke="#c75938" stroke-miterlimit="10" stroke-width="0.5"/>
              </g>
            </g>
            <g id="Group_240" data-name="Group 240">
              <path id="Path_2026" data-name="Path 2026" d="M277.53,287.168s6.377-54.921,8.368-81.182c-17.812-.874-35.689-.407-52.208,2.142,1.169,25.417,12.066,79.188,12.066,79.188Z" transform="translate(-233.69 -205.582)" fill="#fff"/>
              <path id="Path_2027" data-name="Path 2027" d="M237.8,223.051l7.489,44.925q13.1,1.031,26.266.984,3.059-22.934,4.113-46.028a25.748,25.748,0,0,1-23.132,3C247.743,224.18,242.68,220.913,237.8,223.051Z" transform="translate(-229.973 -190.423)" fill="#94dfff"/>
            </g>
            <g id="Group_241" data-name="Group 241" transform="translate(484.007)">
              <path id="Path_2028" data-name="Path 2028" d="M531.733,287.168s6.377-54.921,8.368-81.182c-17.81-.874-35.687-.407-52.208,2.142,1.169,25.417,12.066,79.188,12.066,79.188Z" transform="translate(-487.893 -205.582)" fill="#fff"/>
              <path id="Path_2029" data-name="Path 2029" d="M492.005,223.051q3.747,22.463,7.49,44.925,13.1,1.031,26.266.984,3.056-22.934,4.113-46.028a25.753,25.753,0,0,1-23.134,3C501.948,224.18,496.885,220.913,492.005,223.051Z" transform="translate(-484.176 -190.423)" fill="#94dfff"/>
            </g>
            <g id="Group_245" data-name="Group 245" transform="translate(323.87 19.453)">
              <g id="Group_244" data-name="Group 244" transform="translate(13.893)">
                <g id="Group_242" data-name="Group 242" transform="translate(39.183)">
                  <path id="Path_2030" data-name="Path 2030" d="M536.745,265.348c2.46-9.316.1-19.549-5.3-27.536s-13.572-13.835-22.488-17.49c-16.06-6.582-35.089-6.1-50.325,2.218s-26.106,24.571-26.972,41.907C467.76,263.193,503.9,263.3,536.745,265.348Z" transform="translate(-431.664 -215.798)" fill="#9c6035"/>
                  <path id="Path_2031" data-name="Path 2031" d="M465.6,219.8c5.622-1.862,11.66.958,16.679,4.107a13.564,13.564,0,0,1,3.964,3.313,5.013,5.013,0,0,1,.756,4.9c-1.049,2.26-3.96,2.881-6.451,2.875a27.945,27.945,0,0,1-19.01-7.641,5.667,5.667,0,0,1-1.6-2.188,4.26,4.26,0,0,1,.821-3.783C461.568,220.309,462.688,219.523,465.6,219.8Z" transform="translate(-406.247 -212.718)" fill="#bd7440"/>
                </g>
                <g id="Group_243" data-name="Group 243" transform="translate(0 4.063)">
                  <path id="Path_2032" data-name="Path 2032" d="M425.75,230.668l-6.474-8.126s1.316-4.513-.659-4.608-3.2,3.574-3.2,3.574-4.044-1.881-4.326.564,5.455,2.447,5.455,2.447l5.548,7.146Z" transform="translate(-411.085 -217.932)" fill="#fff7ed"/>
                  <path id="Path_2033" data-name="Path 2033" d="M472.465,262.464c3.913-2.129,5.489-7.243,4.566-11.6s-3.856-8.031-7.134-11.049a47.315,47.315,0,0,0-36.018-12.13,13.811,13.811,0,0,1-3.92.053c-2.565-.5-4.484-2.553-6.67-3.985s-5.459-2.11-7.159-.126c-1.43,1.664-.878,4.271.27,6.14s2.807,3.444,3.6,5.489c1.6,4.135-.758,8.717-.609,13.149.192,5.689,4.634,10.533,9.806,12.913s11,2.772,16.681,3.128l11.07.695C462.827,265.51,468.654,264.539,472.465,262.464Z" transform="translate(-407.298 -213.902)" fill="#9c6035"/>
                  <path id="Path_2034" data-name="Path 2034" d="M434.6,229.212c4.025-1.477,8.349.762,11.942,3.26a10.04,10.04,0,0,1,2.839,2.631,4.328,4.328,0,0,1,.541,3.892c-.75,1.794-2.835,2.285-4.617,2.281a19.011,19.011,0,0,1-13.612-6.066,4.48,4.48,0,0,1-1.144-1.736,3.66,3.66,0,0,1,.588-3C431.711,229.616,432.515,228.991,434.6,229.212Z" transform="translate(-393.594 -208.162)" fill="#bd7440"/>
                </g>
              </g>
              <path id="Path_2035" data-name="Path 2035" d="M584.969,240,403.788,241.02c4.771,11.891,20.082,14.686,32.877,15.373,40.632,2.182,81.364.75,122.03-.682,5.257-.185,10.676-.407,15.455-2.609S582.952,246.187,584.969,240Z" transform="translate(-403.788 -193.922)" fill="#dba993"/>
            </g>
          </g>
        </g>
      </g>
    </g>
  </g>
</svg>
